<svg width="50" height="51" viewBox="0 0 50 51" fill="none" xmlns="http://www.w3.org/2000/svg">
<path d="M14.03 2.53403C9.78162 4.61604 6.20947 7.8697 3.73288 11.8749L36.0437 47.5286C40.2844 45.4329 43.8463 42.168 46.3103 38.1539L14.03 2.53403Z" fill="#C3D7FF"/>
<path d="M49.9885 25.8172C49.9962 25.5622 50 25.3063 50 25.0494C50 11.767 39.6826 0.899187 26.6399 0.0529785L49.9885 25.8172Z" fill="#C3D7FF"/>
<path d="M0 25.0494C0 24.7544 0.00509644 24.4606 0.0151978 24.1681L23.4732 50.053C10.3771 49.2624 0 38.3702 0 25.0494Z" fill="#C3D7FF"/>
<path d="M11.104 34.088C10.624 33.832 10.32 33.568 10.192 33.296C10.064 33.024 10 32.792 10 32.6C10 32.168 10.152 31.592 10.456 30.872C10.776 30.136 11.2 29.296 11.728 28.352C12.256 27.408 12.856 26.424 13.528 25.4C13.032 25.368 12.56 25.344 12.112 25.328C11.664 25.312 11.088 25.304 10.384 25.304H10C10.224 24.728 10.576 24.328 11.056 24.104C11.552 23.864 12.128 23.744 12.784 23.744C13.056 23.744 13.336 23.76 13.624 23.792C13.928 23.824 14.24 23.856 14.56 23.888C15.76 22.16 16.928 20.584 18.064 19.16C19.2 17.72 20.176 16.608 20.992 15.824C21.76 15.056 22.32 14.672 22.672 14.672C22.896 14.672 23.144 14.76 23.416 14.936C23.704 15.112 24 15.336 24.304 15.608C24.144 15.736 23.936 16.064 23.68 16.592C23.44 17.12 23.176 17.792 22.888 18.608C22.616 19.408 22.336 20.288 22.048 21.248C21.776 22.208 21.528 23.184 21.304 24.176C21.08 25.168 20.896 26.12 20.752 27.032C20.624 27.928 20.56 28.72 20.56 29.408C20.56 30.672 20.84 31.304 21.4 31.304C21.768 31.304 22.224 31.024 22.768 30.464C23.312 29.904 23.92 28.992 24.592 27.728L25.024 28.184C24.528 29.496 23.88 30.576 23.08 31.424C22.296 32.272 21.456 32.696 20.56 32.696C19.792 32.696 19.248 32.368 18.928 31.712C18.608 31.04 18.448 30.128 18.448 28.976C18.448 28.608 18.472 28.192 18.52 27.728C18.568 27.264 18.648 26.688 18.76 26C18.056 25.888 17.432 25.8 16.888 25.736C16.344 25.672 15.824 25.608 15.328 25.544C14.56 26.904 13.816 28.312 13.096 29.768C12.376 31.224 11.712 32.664 11.104 34.088ZM19 24.824C19.208 23.88 19.448 22.928 19.72 21.968C20.008 20.992 20.304 20.064 20.608 19.184C20.928 18.288 21.24 17.488 21.544 16.784C20.808 17.36 19.96 18.312 19 19.64C18.056 20.952 17.088 22.464 16.096 24.176C16.576 24.272 17.056 24.376 17.536 24.488C18.016 24.6 18.504 24.712 19 24.824ZM27.9486 34.088C27.4686 34.088 27.0126 33.96 26.5806 33.704C26.1646 33.448 25.9566 33.12 25.9566 32.72C25.9566 32.512 25.9886 32.288 26.0526 32.048C26.1326 31.808 26.2046 31.584 26.2686 31.376C26.7646 29.856 27.2286 28.44 27.6606 27.128C28.0926 25.8 28.5246 24.528 28.9566 23.312C29.4046 22.08 29.8686 20.848 30.3486 19.616C30.8446 18.384 31.3966 17.096 32.0046 15.752C31.0926 15.96 30.3726 16.224 29.8446 16.544C29.3166 16.848 28.9646 17 28.7886 17C28.7086 17 28.5886 16.944 28.4286 16.832C28.2846 16.72 28.1566 16.592 28.0446 16.448C27.9326 16.304 27.8766 16.176 27.8766 16.064C28.3246 15.872 28.8446 15.672 29.4366 15.464C30.0446 15.256 30.7006 15.08 31.4046 14.936C32.1086 14.792 32.8126 14.72 33.5166 14.72C34.2686 14.72 35.0366 14.824 35.8206 15.032C36.6046 15.224 37.3246 15.52 37.9806 15.92C38.6526 16.304 39.1886 16.792 39.5886 17.384C40.0046 17.96 40.2126 18.64 40.2126 19.424C40.2126 20.272 40.0206 21 39.6366 21.608C39.2526 22.216 38.7406 22.728 38.1006 23.144C37.4766 23.56 36.7966 23.896 36.0606 24.152C35.3246 24.408 34.5886 24.6 33.8526 24.728C33.1326 24.856 32.4846 24.944 31.9086 24.992C31.3326 25.04 30.9006 25.064 30.6126 25.064H30.4686C30.0206 26.648 29.5806 28.232 29.1486 29.816C28.7166 31.384 28.3166 32.808 27.9486 34.088ZM30.6846 24.32C31.5806 24.256 32.4766 24.104 33.3726 23.864C34.2686 23.624 35.0766 23.296 35.7966 22.88C36.5326 22.448 37.1166 21.912 37.5486 21.272C37.9966 20.632 38.2206 19.888 38.2206 19.04C38.2206 18.24 38.0046 17.592 37.5726 17.096C37.1566 16.6 36.6126 16.224 35.9406 15.968C35.2846 15.712 34.5886 15.576 33.8526 15.56C33.2766 16.68 32.7246 18.008 32.1966 19.544C31.6686 21.064 31.1646 22.656 30.6846 24.32Z" fill="#07358D"/>
</svg>
