<svg width="50" height="50" viewBox="0 0 50 50" fill="none" xmlns="http://www.w3.org/2000/svg">
<path d="M39.8749 26.9583C39.9583 26.3333 39.9999 25.6875 39.9999 25C39.9999 24.3333 39.9583 23.6667 39.8541 23.0417L44.0833 19.75C44.4583 19.4583 44.5624 18.8958 44.3333 18.4792L40.3333 11.5625C40.0833 11.1042 39.5624 10.9583 39.1041 11.1042L34.1249 13.1042C33.0833 12.3125 31.9791 11.6458 30.7499 11.1458L29.9999 5.85417C29.9166 5.35417 29.4999 5 28.9999 5H20.9999C20.4999 5 20.1041 5.35417 20.0208 5.85417L19.2708 11.1458C18.0416 11.6458 16.9166 12.3333 15.8958 13.1042L10.9166 11.1042C10.4583 10.9375 9.93744 11.1042 9.68744 11.5625L5.70828 18.4792C5.45828 18.9167 5.54161 19.4583 5.95828 19.75L10.1874 23.0417C10.0833 23.6667 9.99994 24.3542 9.99994 25C9.99994 25.6458 10.0416 26.3333 10.1458 26.9583L5.91661 30.25C5.54161 30.5417 5.43744 31.1042 5.66661 31.5208L9.66661 38.4375C9.91661 38.8958 10.4374 39.0417 10.8958 38.8958L15.8749 36.8958C16.9166 37.6875 18.0208 38.3542 19.2499 38.8542L19.9999 44.1458C20.1041 44.6458 20.4999 45 20.9999 45H28.9999C29.4999 45 29.9166 44.6458 29.9791 44.1458L30.7291 38.8542C31.9583 38.3542 33.0833 37.6875 34.1041 36.8958L39.0833 38.8958C39.5416 39.0625 40.0624 38.8958 40.3124 38.4375L44.3124 31.5208C44.5624 31.0625 44.4583 30.5417 44.0624 30.25L39.8749 26.9583ZM24.9999 32.5C20.8749 32.5 17.4999 29.125 17.4999 25C17.4999 20.875 20.8749 17.5 24.9999 17.5C29.1249 17.5 32.4999 20.875 32.4999 25C32.4999 29.125 29.1249 32.5 24.9999 32.5Z" fill="#07358D"/>
</svg>
